<svg width="138" height="59" viewBox="0 0 138 59" fill="none" xmlns="http://www.w3.org/2000/svg">
<path d="M1.624 28V7.84H20.188V11.564H5.348V16.044H17.276V19.796H5.348V28H1.624ZM21.8584 28V7.84H40.4224V11.564H25.5824V16.044H37.5104V19.796H25.5824V24.276H40.4224V28H21.8584ZM42.8479 28V7.84H46.5159V28H42.8479Z" fill="url(#paint0_linear_2_25)"/>
<path d="M5.376 56C4.66667 56 4.01333 55.8227 3.416 55.468C2.83733 55.1133 2.37067 54.6467 2.016 54.068C1.66133 53.4707 1.484 52.8173 1.484 52.108V50.568H5.18V51.94C5.18 52.0333 5.208 52.1173 5.264 52.192C5.33867 52.248 5.42267 52.276 5.516 52.276H17.584C17.6773 52.276 17.752 52.248 17.808 52.192C17.8827 52.1173 17.92 52.0333 17.92 51.94V48.104C17.92 48.0107 17.8827 47.936 17.808 47.88C17.752 47.824 17.6773 47.796 17.584 47.796H5.376C4.66667 47.796 4.01333 47.6187 3.416 47.264C2.83733 46.9093 2.37067 46.4427 2.016 45.864C1.66133 45.2667 1.484 44.604 1.484 43.876V39.732C1.484 39.0227 1.66133 38.3787 2.016 37.8C2.37067 37.2027 2.83733 36.7267 3.416 36.372C4.01333 36.0173 4.66667 35.84 5.376 35.84H17.752C18.4613 35.84 19.1053 36.0173 19.684 36.372C20.2813 36.7267 20.7573 37.2027 21.112 37.8C21.4667 38.3787 21.644 39.0227 21.644 39.732V41.272H17.92V39.9C17.92 39.8067 17.8827 39.732 17.808 39.676C17.752 39.6013 17.6773 39.564 17.584 39.564H5.516C5.42267 39.564 5.33867 39.6013 5.264 39.676C5.208 39.732 5.18 39.8067 5.18 39.9V43.736C5.18 43.8293 5.208 43.904 5.264 43.96C5.33867 44.016 5.42267 44.044 5.516 44.044H17.752C18.4613 44.044 19.1053 44.2213 19.684 44.576C20.2813 44.9307 20.7573 45.4067 21.112 46.004C21.4667 46.5827 21.644 47.236 21.644 47.964V52.108C21.644 52.8173 21.4667 53.4707 21.112 54.068C20.7573 54.6467 20.2813 55.1133 19.684 55.468C19.1053 55.8227 18.4613 56 17.752 56H5.376ZM28.5368 56C27.8275 56 27.1741 55.8227 26.5768 55.468C25.9981 55.1133 25.5315 54.6467 25.1768 54.068C24.8221 53.4707 24.6448 52.8173 24.6448 52.108V39.732C24.6448 39.0227 24.8221 38.3787 25.1768 37.8C25.5315 37.2027 25.9981 36.7267 26.5768 36.372C27.1741 36.0173 27.8275 35.84 28.5368 35.84H40.9128C41.6221 35.84 42.2661 36.0173 42.8448 36.372C43.4421 36.7267 43.9181 37.2027 44.2728 37.8C44.6275 38.3787 44.8048 39.0227 44.8048 39.732V52.108C44.8048 52.8173 44.6275 53.4707 44.2728 54.068C43.9181 54.6467 43.4421 55.1133 42.8448 55.468C42.2661 55.8227 41.6221 56 40.9128 56H28.5368ZM28.6768 52.276H40.7168C40.8101 52.276 40.8941 52.248 40.9688 52.192C41.0435 52.1173 41.0808 52.0333 41.0808 51.94V39.9C41.0808 39.8067 41.0435 39.732 40.9688 39.676C40.8941 39.6013 40.8101 39.564 40.7168 39.564H28.6768C28.5835 39.564 28.4995 39.6013 28.4248 39.676C28.3688 39.732 28.3408 39.8067 28.3408 39.9V51.94C28.3408 52.0333 28.3688 52.1173 28.4248 52.192C28.4995 52.248 28.5835 52.276 28.6768 52.276ZM47.9443 56V35.84H66.5083V39.564H51.6683V44.044H63.5963V47.796H51.6683V56H47.9443ZM67.7307 56V35.84H71.3987V56H67.7307ZM74.167 56V39.732C74.167 39.0227 74.3443 38.3787 74.699 37.8C75.0536 37.2027 75.5203 36.7267 76.099 36.372C76.6963 36.0173 77.3496 35.84 78.059 35.84H90.407C91.1163 35.84 91.7696 36.0173 92.367 36.372C92.9643 36.7267 93.4403 37.2027 93.795 37.8C94.1496 38.3787 94.327 39.0227 94.327 39.732V56H90.603V49.224H77.863V56H74.167ZM77.863 45.528H90.603V39.9C90.603 39.8067 90.5656 39.732 90.491 39.676C90.4163 39.6013 90.3323 39.564 90.239 39.564H78.199C78.1056 39.564 78.0216 39.6013 77.947 39.676C77.891 39.732 77.863 39.8067 77.863 39.9V45.528Z" fill="white"/>
<defs>
<linearGradient id="paint0_linear_2_25" x1="-1.73913" y1="5" x2="52.3406" y2="7.43459" gradientUnits="userSpaceOnUse">
<stop stop-color="#FF56F6"/>
<stop offset="0.43567" stop-color="#B936EE"/>
<stop offset="0.821043" stop-color="#3BACE2"/>
<stop offset="0.95231" stop-color="#406AFF"/>
</linearGradient>
</defs>
</svg>
