<svg width="136" height="63" viewBox="0 0 136 63" fill="none" xmlns="http://www.w3.org/2000/svg">
<path d="M29.856 32V8.96H51.072V13.216H34.112V18.336H47.744V22.624H34.112V32H29.856ZM52.981 32V8.96H74.197V13.216H57.237V18.336H70.869V22.624H57.237V27.744H74.197V32H52.981ZM76.969 32V8.96H81.161V32H76.969Z" fill="url(#paint0_linear_21_5)"/>
<path d="M6.144 61C5.33333 61 4.58667 60.7973 3.904 60.392C3.24267 59.9867 2.70933 59.4533 2.304 58.792C1.89867 58.1093 1.696 57.3627 1.696 56.552V54.792H5.92V56.36C5.92 56.4667 5.952 56.5627 6.016 56.648C6.10133 56.712 6.19733 56.744 6.304 56.744H20.096C20.2027 56.744 20.288 56.712 20.352 56.648C20.4373 56.5627 20.48 56.4667 20.48 56.36V51.976C20.48 51.8693 20.4373 51.784 20.352 51.72C20.288 51.656 20.2027 51.624 20.096 51.624H6.144C5.33333 51.624 4.58667 51.4213 3.904 51.016C3.24267 50.6107 2.70933 50.0773 2.304 49.416C1.89867 48.7333 1.696 47.976 1.696 47.144V42.408C1.696 41.5973 1.89867 40.8613 2.304 40.2C2.70933 39.5173 3.24267 38.9733 3.904 38.568C4.58667 38.1627 5.33333 37.96 6.144 37.96H20.288C21.0987 37.96 21.8347 38.1627 22.496 38.568C23.1787 38.9733 23.7227 39.5173 24.128 40.2C24.5333 40.8613 24.736 41.5973 24.736 42.408V44.168H20.48V42.6C20.48 42.4933 20.4373 42.408 20.352 42.344C20.288 42.2587 20.2027 42.216 20.096 42.216H6.304C6.19733 42.216 6.10133 42.2587 6.016 42.344C5.952 42.408 5.92 42.4933 5.92 42.6V46.984C5.92 47.0907 5.952 47.176 6.016 47.24C6.10133 47.304 6.19733 47.336 6.304 47.336H20.288C21.0987 47.336 21.8347 47.5387 22.496 47.944C23.1787 48.3493 23.7227 48.8933 24.128 49.576C24.5333 50.2373 24.736 50.984 24.736 51.816V56.552C24.736 57.3627 24.5333 58.1093 24.128 58.792C23.7227 59.4533 23.1787 59.9867 22.496 60.392C21.8347 60.7973 21.0987 61 20.288 61H6.144ZM32.6135 61C31.8028 61 31.0562 60.7973 30.3735 60.392C29.7122 59.9867 29.1788 59.4533 28.7735 58.792C28.3682 58.1093 28.1655 57.3627 28.1655 56.552V42.408C28.1655 41.5973 28.3682 40.8613 28.7735 40.2C29.1788 39.5173 29.7122 38.9733 30.3735 38.568C31.0562 38.1627 31.8028 37.96 32.6135 37.96H46.7575C47.5682 37.96 48.3042 38.1627 48.9655 38.568C49.6482 38.9733 50.1922 39.5173 50.5975 40.2C51.0028 40.8613 51.2055 41.5973 51.2055 42.408V56.552C51.2055 57.3627 51.0028 58.1093 50.5975 58.792C50.1922 59.4533 49.6482 59.9867 48.9655 60.392C48.3042 60.7973 47.5682 61 46.7575 61H32.6135ZM32.7735 56.744H46.5335C46.6402 56.744 46.7362 56.712 46.8215 56.648C46.9068 56.5627 46.9495 56.4667 46.9495 56.36V42.6C46.9495 42.4933 46.9068 42.408 46.8215 42.344C46.7362 42.2587 46.6402 42.216 46.5335 42.216H32.7735C32.6668 42.216 32.5708 42.2587 32.4855 42.344C32.4215 42.408 32.3895 42.4933 32.3895 42.6V56.36C32.3895 56.4667 32.4215 56.5627 32.4855 56.648C32.5708 56.712 32.6668 56.744 32.7735 56.744ZM54.7935 61V37.96H76.0095V42.216H59.0495V47.336H72.6815V51.624H59.0495V61H54.7935ZM77.4065 61V37.96H81.5985V61H77.4065ZM84.7623 61V42.408C84.7623 41.5973 84.9649 40.8613 85.3703 40.2C85.7756 39.5173 86.3089 38.9733 86.9703 38.568C87.6529 38.1627 88.3996 37.96 89.2103 37.96H103.322C104.133 37.96 104.88 38.1627 105.562 38.568C106.245 38.9733 106.789 39.5173 107.194 40.2C107.6 40.8613 107.802 41.5973 107.802 42.408V61H103.546V53.256H88.9863V61H84.7623ZM88.9863 49.032H103.546V42.6C103.546 42.4933 103.504 42.408 103.418 42.344C103.333 42.2587 103.237 42.216 103.13 42.216H89.3703C89.2636 42.216 89.1676 42.2587 89.0823 42.344C89.0183 42.408 88.9863 42.4933 88.9863 42.6V49.032Z" fill="white"/>
<defs>
<linearGradient id="paint0_linear_21_5" x1="26.0435" y1="5.34483" x2="86.8699" y2="8.22669" gradientUnits="userSpaceOnUse">
<stop stop-color="#FF56F6"/>
<stop offset="0.43567" stop-color="#B936EE"/>
<stop offset="0.821043" stop-color="#3BACE2"/>
<stop offset="0.95231" stop-color="#406AFF"/>
</linearGradient>
</defs>
</svg>
